<?xml version="1.0" standalone="no"?>
<!DOCTYPE svg PUBLIC "-//W3C//DTD SVG 20010904//EN"
 "http://www.w3.org/TR/2001/REC-SVG-20010904/DTD/svg10.dtd">
<svg version="1.0" xmlns="http://www.w3.org/2000/svg"
 width="1350.000000pt" height="1167.000000pt" viewBox="0 0 1350.000000 1167.000000"
 preserveAspectRatio="xMidYMid meet">
<metadata>
Created by potrace 1.10, written by Peter Selinger 2001-2011
</metadata>
<g transform="translate(0.000000,1167.000000) scale(0.100000,-0.100000)"
fill="#4767a9" stroke="none">
<path d="M6615 10940 c-104 -5 -152 -13 -240 -39 -158 -46 -300 -120 -402
-209 -266 -232 -393 -507 -393 -849 0 -261 75 -482 231 -675 159 -199 331
-313 594 -395 73 -23 97 -25 270 -27 211 -1 244 5 430 74 370 140 641 481 685
865 28 247 -4 455 -100 645 -133 264 -356 461 -620 550 -176 59 -254 70 -455
60z m295 -568 c163 -75 263 -184 325 -354 25 -68 31 -251 11 -322 -72 -246
-301 -416 -561 -416 -184 0 -358 92 -473 250 -51 70 -65 104 -87 217 -18 88
-18 95 -2 183 10 50 29 116 42 146 46 105 172 234 281 289 88 45 146 55 269
50 103 -4 117 -7 195 -43z"/>
<path d="M6460 8419 c-244 -13 -525 -63 -537 -96 -3 -7 23 -40 59 -76 126
-122 404 -385 473 -448 38 -35 101 -94 139 -131 38 -38 75 -68 83 -68 8 0 77
60 155 133 77 72 191 177 251 232 61 55 170 157 241 227 l131 127 -30 11
c-107 42 -324 79 -529 90 -195 11 -209 11 -436 -1z"/>
<path d="M5202 8231 c-148 -134 -250 -261 -346 -432 -146 -258 -236 -611 -236
-927 0 -214 26 -389 89 -602 19 -66 84 -232 102 -260 5 -8 12 -22 16 -30 18
-43 167 -256 230 -330 90 -106 245 -250 270 -250 10 0 56 39 103 86 47 47 127
120 178 162 50 42 92 82 92 89 0 7 -12 20 -27 30 -46 29 -147 124 -199 188
-235 285 -354 602 -354 939 0 219 77 450 193 583 44 50 24 65 446 -346 167
-163 380 -371 472 -463 167 -167 167 -167 174 -220 3 -29 4 -252 3 -495 -3
-504 0 -486 -76 -457 -34 14 -46 15 -71 5 -38 -16 -406 -390 -395 -401 5 -4
29 -15 54 -24 25 -8 77 -27 115 -41 93 -34 276 -79 402 -99 268 -42 683 -4
933 85 47 17 101 35 120 41 48 14 245 118 327 173 171 112 255 178 363 287
158 157 260 295 354 478 22 41 43 82 47 90 5 8 29 67 54 130 118 299 129 814
25 1145 -48 153 -150 380 -228 508 -23 37 -42 69 -42 72 0 31 -320 369 -344
363 -14 -3 -254 -232 -665 -633 -90 -88 -201 -196 -246 -240 -45 -44 -144
-138 -220 -210 -76 -71 -158 -149 -181 -172 -23 -24 -49 -43 -57 -43 -9 0 -62
44 -118 98 -178 168 -590 568 -694 673 -167 166 -546 534 -555 537 -5 2 -54
-37 -108 -87z m2833 -773 c53 -62 132 -230 151 -318 95 -456 -40 -928 -359
-1258 -50 -51 -221 -192 -234 -192 -4 0 -31 -15 -59 -33 -48 -32 -72 -44 -194
-100 -103 -47 -265 -87 -351 -87 -61 0 -59 -15 -59 506 0 382 3 481 14 508 17
40 314 337 970 969 27 26 57 47 67 47 10 0 34 -19 54 -42z"/>
<path d="M10505 8214 c-53 -18 -145 -91 -193 -153 -22 -27 -57 -91 -78 -143
l-39 -93 1 -275 c0 -175 5 -293 12 -325 7 -27 17 -81 22 -120 29 -221 60 -414
85 -530 8 -38 22 -106 30 -150 21 -115 62 -276 73 -287 6 -6 43 17 93 56 46
36 120 90 164 120 124 85 235 177 235 196 0 9 -7 39 -15 67 -8 28 -26 101 -39
164 -13 63 -33 150 -45 194 -11 44 -25 107 -30 140 -6 33 -17 94 -25 135 -41
212 -49 252 -62 330 -17 104 -38 281 -59 500 -9 91 -18 171 -20 178 -6 16 -59
14 -110 -4z"/>
<path d="M2786 8198 c-2 -13 -9 -61 -15 -108 -51 -391 -73 -539 -106 -700 -8
-41 -19 -102 -24 -135 -19 -131 -115 -560 -151 -675 -11 -36 -20 -68 -20 -71
0 -4 51 -41 113 -83 61 -42 144 -100 184 -129 179 -130 206 -148 213 -140 8 9
45 194 85 428 15 83 34 197 45 255 17 101 34 234 65 539 36 343 8 522 -104
671 -43 57 -88 93 -175 139 -71 38 -104 40 -110 9z"/>
<path d="M3545 7648 c-2 -7 -6 -110 -9 -228 -3 -118 -10 -258 -16 -310 -6 -52
-17 -160 -25 -240 -19 -177 -38 -305 -72 -470 -38 -191 -40 -199 -63 -285 -42
-154 -44 -165 -34 -174 5 -5 68 -39 139 -75 72 -37 168 -86 214 -110 46 -24
90 -42 97 -39 7 2 20 28 29 56 9 29 22 66 30 82 33 78 46 113 55 155 6 25 17
70 24 100 66 273 86 431 86 672 -1 401 -83 626 -293 795 -93 75 -152 101 -162
71z"/>
<path d="M9730 7628 c-268 -134 -413 -560 -356 -1048 28 -242 49 -348 113
-575 55 -199 93 -305 108 -312 7 -2 55 19 106 49 99 55 190 105 302 163 70 37
76 48 53 93 -15 29 -97 339 -121 457 -14 69 -23 133 -45 310 -6 50 -15 117
-20 150 -10 63 -29 430 -33 625 -2 137 -5 139 -107 88z"/>
<path d="M1115 7133 c-82 -10 -162 -50 -245 -121 l-35 -31 156 -153 c85 -84
201 -205 258 -270 137 -157 465 -584 531 -693 13 -22 29 -44 36 -50 16 -14
157 -220 247 -360 14 -22 53 -78 86 -125 33 -47 90 -129 127 -182 161 -235
417 -516 644 -707 135 -113 366 -287 430 -323 75 -42 234 -142 248 -155 7 -7
18 -13 23 -13 5 0 37 -17 71 -38 35 -21 81 -47 103 -57 22 -10 65 -33 95 -51
30 -17 116 -65 190 -107 74 -41 158 -87 185 -102 123 -69 368 -219 422 -258
212 -156 268 -201 349 -282 140 -138 209 -228 270 -350 87 -174 96 -264 64
-585 -14 -136 -58 -353 -116 -575 -30 -112 -176 -573 -210 -663 -13 -34 -24
-67 -24 -72 0 -18 52 17 115 75 33 31 94 86 135 123 193 171 448 433 600 617
263 317 461 645 565 935 20 58 41 114 45 125 12 27 36 111 48 165 52 223 56
253 56 455 0 206 -4 233 -57 421 -42 148 -174 385 -286 514 -173 200 -297 309
-501 442 -76 50 -278 158 -295 158 -3 0 -43 15 -88 34 -109 46 -368 126 -532
165 -336 80 -375 93 -541 178 -157 79 -260 118 -381 143 -79 17 -141 19 -484
20 -216 1 -394 -2 -395 -7 -2 -4 34 -41 79 -81 45 -40 111 -100 147 -133 96
-88 320 -256 437 -327 57 -34 105 -62 107 -62 3 0 27 -13 54 -29 27 -16 60
-32 73 -36 13 -4 58 -24 99 -44 41 -20 122 -54 180 -75 126 -47 156 -67 165
-106 10 -44 -5 -179 -21 -195 -16 -15 -54 -8 -129 25 -27 12 -77 31 -110 42
-33 11 -98 40 -145 63 -47 23 -130 64 -185 91 -406 198 -865 579 -1030 853
-31 52 -39 75 -39 115 0 45 3 52 42 86 56 50 116 61 382 69 l215 6 -140 70
c-145 73 -176 91 -385 231 -259 174 -396 288 -635 528 -340 342 -628 567 -805
626 -57 19 -217 52 -230 48 -3 0 -18 -3 -35 -5z"/>
<path d="M12095 7125 c-75 -17 -115 -32 -190 -73 -80 -43 -88 -48 -180 -116
-92 -68 -123 -97 -405 -371 -329 -320 -568 -524 -833 -709 -78 -54 -262 -151
-352 -184 -33 -13 -71 -31 -85 -42 -25 -19 -23 -19 235 -19 143 0 274 -3 290
-7 73 -17 115 -60 115 -117 0 -38 -67 -155 -136 -237 -109 -130 -270 -284
-419 -398 -77 -59 -296 -212 -303 -212 -4 0 -25 -12 -47 -27 -22 -15 -71 -43
-110 -63 -38 -20 -79 -41 -90 -47 -34 -19 -273 -133 -279 -133 -4 0 -55 -21
-114 -46 -163 -70 -175 -66 -186 72 -6 74 -5 89 10 105 9 10 24 19 32 19 7 0
26 7 40 15 15 8 56 26 92 41 36 14 106 46 155 69 50 24 115 55 145 69 124 57
305 166 455 274 182 131 456 379 433 393 -6 4 -17 5 -23 1 -5 -4 -188 -7 -405
-7 -333 -1 -406 -3 -465 -17 -109 -26 -195 -57 -260 -93 -169 -92 -199 -108
-252 -126 -32 -11 -83 -24 -113 -29 -30 -5 -82 -16 -115 -23 -33 -8 -121 -29
-196 -45 -153 -35 -392 -110 -489 -154 -36 -16 -94 -41 -129 -55 -66 -26 -173
-87 -276 -156 -333 -223 -523 -429 -699 -761 -118 -222 -163 -552 -116 -856
33 -216 46 -266 136 -510 75 -203 297 -599 441 -787 16 -21 55 -72 86 -113
142 -189 433 -486 709 -722 75 -65 144 -125 153 -134 25 -25 27 -12 4 35 -44
92 -226 685 -244 796 -4 22 -12 60 -20 85 -7 25 -19 77 -28 115 -77 346 -91
557 -49 710 24 86 79 202 139 293 74 112 326 344 504 463 20 13 91 61 157 107
67 45 125 82 128 82 4 0 30 15 58 34 52 34 176 106 231 134 17 8 60 35 97 59
37 23 70 43 73 43 3 0 39 20 79 45 41 25 77 45 80 45 7 0 256 151 346 210 41
27 102 66 135 86 65 39 243 172 394 295 112 89 349 323 426 418 154 190 203
253 238 302 142 203 308 445 421 614 22 33 72 104 110 157 39 53 94 129 121
168 67 94 80 112 300 385 91 114 227 267 349 393 67 68 120 129 118 134 -5 19
-59 59 -117 87 -105 51 -197 61 -310 36z"/>
</g>
</svg>
